<?xml version="1.0" standalone="no"?>
<!DOCTYPE svg PUBLIC "-//W3C//DTD SVG 20010904//EN"
 "http://www.w3.org/TR/2001/REC-SVG-20010904/DTD/svg10.dtd">
<svg version="1.0" xmlns="http://www.w3.org/2000/svg"
 width="576.000000pt" height="197.000000pt" viewBox="0 0 576.000000 197.000000"
 preserveAspectRatio="xMidYMid meet">

<g transform="translate(0.000000,197.000000) scale(0.100000,-0.100000)"
fill="#000000" stroke="none">
<path d="M110 1855 c0 -16 -6 -25 -15 -25 -13 0 -15 -104 -15 -875 l0 -875
230 0 c211 0 231 1 236 17 3 10 10 26 15 35 5 10 9 56 9 103 l0 85 -90 0 -90
0 0 660 0 660 80 0 c79 0 80 0 80 25 0 14 5 25 10 25 6 0 10 38 10 95 l0 95
-230 0 -230 0 0 -25z"/>
<path d="M5260 1855 c0 -16 -6 -25 -15 -25 -12 0 -15 -17 -15 -95 l0 -95 84 0
85 0 3 -47 c2 -27 2 -324 0 -660 l-2 -613 -70 0 c-64 0 -70 -2 -70 -20 0 -11
-7 -23 -15 -26 -12 -5 -15 -26 -15 -100 l0 -94 233 2 232 3 3 22 c2 13 8 23
13 23 5 0 9 342 9 875 l0 875 -230 0 -230 0 0 -25z"/>
<path d="M3080 1742 c-156 -24 -175 -29 -179 -47 -2 -11 -9 -24 -17 -28 -9 -5
-14 -26 -14 -61 l0 -52 55 -18 55 -17 0 -126 c0 -111 -2 -124 -16 -119 -89 34
-232 33 -299 -2 -68 -35 -121 -96 -170 -194 -39 -79 -48 -107 -57 -191 -20
-165 15 -341 83 -425 106 -131 347 -133 460 -4 24 27 34 33 38 22 3 -8 12 -35
21 -60 l15 -45 130 0 130 0 3 28 c2 15 8 27 13 27 6 0 8 255 7 668 l-3 667
-40 2 c-22 1 -119 -11 -215 -25z m-102 -879 l-3 -248 -42 1 c-47 1 -75 20
-101 69 -21 39 -30 289 -13 347 15 49 59 78 119 78 l42 0 -2 -247z"/>
<path d="M1045 1309 c-155 -23 -273 -127 -351 -310 -32 -76 -44 -228 -25 -320
25 -119 106 -235 199 -283 80 -41 216 -56 327 -35 95 17 185 71 185 110 0 9 6
22 14 28 12 10 11 20 -5 64 -11 29 -22 57 -24 64 -3 8 -17 6 -52 -7 -26 -10
-77 -21 -113 -24 -87 -9 -126 10 -160 79 -23 46 -25 61 -24 180 0 73 5 142 12
157 15 37 52 59 102 61 l42 2 30 -77 30 -78 74 0 c72 0 74 1 74 24 0 13 4 26
10 28 5 2 14 55 18 118 10 130 8 134 -63 175 -68 40 -198 59 -300 44z"/>
<path d="M4781 1309 c-135 -23 -253 -118 -324 -260 -46 -94 -56 -142 -57 -254
0 -144 40 -252 124 -335 115 -115 358 -145 516 -65 48 24 65 41 92 90 15 29
15 33 -9 91 l-24 62 -47 -18 c-66 -25 -155 -34 -197 -20 -78 26 -113 125 -103
298 7 118 25 151 92 170 26 8 53 12 59 9 7 -3 25 -39 40 -81 l28 -76 75 0 c72
0 74 1 74 24 0 13 5 26 11 28 5 2 13 54 18 118 7 108 6 116 -13 138 -31 35
-114 71 -191 82 -80 11 -90 11 -164 -1z"/>
<path d="M1763 1295 c-122 -34 -187 -89 -251 -213 -49 -95 -62 -154 -62 -282
0 -273 99 -404 333 -441 94 -14 240 -7 317 16 178 55 277 212 287 460 10 234
-66 384 -226 446 -73 29 -315 37 -398 14z m178 -165 c10 -6 27 -25 36 -43 16
-27 18 -66 21 -271 3 -175 0 -245 -9 -262 -16 -31 -63 -40 -95 -19 -49 32 -54
64 -54 329 0 242 0 245 22 260 26 19 51 20 79 6z"/>
<path d="M3722 1295 c-109 -30 -161 -68 -218 -155 -86 -133 -116 -267 -94
-427 28 -212 116 -312 307 -349 199 -38 426 11 510 110 70 83 123 248 123 388
0 215 -79 361 -229 419 -73 29 -315 37 -399 14z m180 -166 c43 -23 52 -70 56
-304 4 -255 0 -286 -46 -299 -41 -11 -77 11 -100 62 -14 31 -17 76 -17 275 l0
239 24 19 c26 21 53 24 83 8z"/>
</g>
</svg>
