<svg width="89" height="76" viewBox="0 0 89 76" fill="none" xmlns="http://www.w3.org/2000/svg">
<path d="M4.26667 75.2175V2.68419H23.7653V10.5349H16.3413V67.3669H23.7653V75.2175H4.26667ZM58.622 59.6015L58.238 60.0709C57.982 60.3553 57.5269 60.7251 56.8727 61.1802C56.2469 61.6069 55.4789 62.0477 54.5687 62.5029C53.6869 62.9295 52.4922 63.2851 50.9847 63.5695C49.5056 63.8824 47.9127 64.0389 46.206 64.0389C40.4318 64.0389 36.0087 62.3464 32.9367 58.9615C29.8931 55.5766 28.3713 51.0966 28.3713 45.5215C28.3713 42.5064 28.8407 39.7615 29.7793 37.2869C30.718 34.8122 31.998 32.7642 33.6193 31.1429C35.2691 29.4931 37.1891 28.2273 39.3793 27.3455C41.598 26.4353 43.9873 25.9802 46.5473 25.9802C51.4967 25.9802 55.3367 27.1606 58.0673 29.5215C58.6647 30.1189 58.9633 30.4175 58.9633 30.4175L58.3233 40.4442L52.2647 40.4869L49.8327 33.9589C49.6051 33.902 49.2922 33.8735 48.894 33.8735C46.3056 33.8735 44.5136 34.7695 43.518 36.5615C42.5509 38.3251 42.0673 41.3971 42.0673 45.7775C42.0673 47.6833 42.2238 49.3189 42.5367 50.6842C42.8496 52.0211 43.2051 53.0309 43.6033 53.7135C44.0016 54.3677 44.5278 54.8797 45.182 55.2495C45.8647 55.6193 46.4193 55.8326 46.846 55.8895C47.2727 55.9464 47.7989 55.9749 48.4247 55.9749C49.8469 55.9749 51.2976 55.8042 52.7767 55.4629C54.2842 55.1215 55.5216 54.5669 56.4887 53.7989L58.622 59.6015ZM62.8617 75.2175V67.3669H70.2857V10.5349H62.8617V2.68419H82.3603V75.2175H62.8617Z" fill="#14F6EB"/>
<path d="M6.26667 73.0747V0.541332H25.7653V8.392H18.3413V65.224H25.7653V73.0747H6.26667ZM60.622 57.4587L60.238 57.928C59.982 58.2124 59.5269 58.5822 58.8727 59.0373C58.2469 59.464 57.4789 59.9049 56.5687 60.36C55.6869 60.7867 54.4922 61.1422 52.9847 61.4267C51.5056 61.7396 49.9127 61.896 48.206 61.896C42.4318 61.896 38.0087 60.2036 34.9367 56.8187C31.8931 53.4338 30.3713 48.9538 30.3713 43.3787C30.3713 40.3636 30.8407 37.6187 31.7793 35.144C32.718 32.6693 33.998 30.6213 35.6193 29C37.2691 27.3502 39.1891 26.0844 41.3793 25.2027C43.598 24.2924 45.9873 23.8373 48.5473 23.8373C53.4967 23.8373 57.3367 25.0178 60.0673 27.3787C60.6647 27.976 60.9633 28.2747 60.9633 28.2747L60.3233 38.3013L54.2647 38.344L51.8327 31.816C51.6051 31.7591 51.2922 31.7307 50.894 31.7307C48.3056 31.7307 46.5136 32.6267 45.518 34.4187C44.5509 36.1822 44.0673 39.2542 44.0673 43.6347C44.0673 45.5404 44.2238 47.176 44.5367 48.5413C44.8496 49.8782 45.2051 50.888 45.6033 51.5707C46.0016 52.2249 46.5278 52.7369 47.182 53.1067C47.8647 53.4764 48.4193 53.6898 48.846 53.7467C49.2727 53.8036 49.7989 53.832 50.4247 53.832C51.8469 53.832 53.2976 53.6613 54.7767 53.32C56.2842 52.9787 57.5216 52.424 58.4887 51.656L60.622 57.4587ZM64.8617 73.0747V65.224H72.2857V8.392H64.8617V0.541332H84.3603V73.0747H64.8617Z" fill="#F809B0"/>
<path d="M5.26667 74.1461V1.61276H24.7653V9.46343H17.3413V66.2954H24.7653V74.1461H5.26667ZM59.622 58.5301L59.238 58.9994C58.982 59.2839 58.5269 59.6536 57.8727 60.1088C57.2469 60.5354 56.4789 60.9763 55.5687 61.4314C54.6869 61.8581 53.4922 62.2136 51.9847 62.4981C50.5056 62.811 48.9127 62.9674 47.206 62.9674C41.4318 62.9674 37.0087 61.275 33.9367 57.8901C30.8931 54.5052 29.3713 50.0252 29.3713 44.4501C29.3713 41.435 29.8407 38.6901 30.7793 36.2154C31.718 33.7408 32.998 31.6928 34.6193 30.0714C36.2691 28.4216 38.1891 27.1559 40.3793 26.2741C42.598 25.3639 44.9873 24.9088 47.5473 24.9088C52.4967 24.9088 56.3367 26.0892 59.0673 28.4501C59.6647 29.0474 59.9633 29.3461 59.9633 29.3461L59.3233 39.3728L53.2647 39.4154L50.8327 32.8874C50.6051 32.8305 50.2922 32.8021 49.894 32.8021C47.3056 32.8021 45.5136 33.6981 44.518 35.4901C43.5509 37.2536 43.0673 40.3256 43.0673 44.7061C43.0673 46.6119 43.2238 48.2474 43.5367 49.6128C43.8496 50.9496 44.2051 51.9594 44.6033 52.6421C45.0016 53.2963 45.5278 53.8083 46.182 54.1781C46.8647 54.5479 47.4193 54.7612 47.846 54.8181C48.2727 54.875 48.7989 54.9034 49.4247 54.9034C50.8469 54.9034 52.2976 54.7328 53.7767 54.3914C55.2842 54.0501 56.5216 53.4954 57.4887 52.7274L59.622 58.5301ZM63.8617 74.1461V66.2954H71.2857V9.46343H63.8617V1.61276H83.3603V74.1461H63.8617Z" fill="white"/>
</svg>
